<svg width="38" height="25" viewBox="0 0 38 25" fill="none" xmlns="http://www.w3.org/2000/svg">
<path d="M19.5748 17.4129C19.5748 22.3977 15.5833 24.5373 11.3342 24.5373H0V0H11.0243C15.0289 0 18.4994 1.1912 18.4994 6.07819C18.4994 8.55681 17.4037 10.1497 15.3068 11.2019C18.1822 12.0541 19.5748 14.3311 19.5748 17.4129ZM5.13962 9.91448H10.352C12.1855 9.91448 13.4864 9.07605 13.4864 6.99297C13.4864 4.7358 11.8173 4.18906 9.96347 4.18906H5.14108V9.91448H5.13962ZM14.4352 17.1151C14.4352 14.6014 13.0033 13.6118 10.7405 13.6118H5.13962V20.3696H10.6358C12.7268 20.3696 14.4352 19.5938 14.4352 17.1151ZM37.9607 16.825H25.749C25.749 19.6701 27.1809 21.3454 29.905 21.3454C31.3165 21.3454 33.1369 20.5421 33.5792 19.0257H37.6828C36.4226 23.0895 33.8033 25 29.7594 25C24.4161 25 21.0969 21.2065 21.0969 15.6735C21.0969 10.3421 24.5994 6.27062 29.7594 6.27062C35.0708 6.27062 38 10.6536 38 15.9087C38 16.2217 37.9811 16.5333 37.9607 16.825ZM24.8061 3.70342V1.28742H34.2864V3.70342H24.8061ZM33.3231 13.7508C33.1252 11.3974 31.9509 9.95724 29.6154 9.95724C27.3861 9.95724 25.9076 11.4188 25.7563 13.7508H33.3231Z" fill="#E5E5E5"/>
</svg>
