<svg width="39" height="62" viewBox="0 0 39 62" fill="none" xmlns="http://www.w3.org/2000/svg">
<path d="M39 5.81114V56.1889C39 59.3988 36.3777 62 33.1515 62H5.84845C2.61792 62 0 59.3944 0 56.1889V5.81114C0 2.60122 2.62233 5.51186e-06 5.84845 5.51186e-06H33.1515C36.3777 -0.00437364 39 2.60122 39 5.81114ZM33.1471 7.26063C33.1471 6.46363 32.4904 5.80676 31.6839 5.80676H7.30726C6.50073 5.80676 5.84404 6.45925 5.84404 7.26063V45.0439C5.84404 45.8409 6.50073 46.4978 7.30726 46.4978H31.6839C32.4904 46.4978 33.1471 45.8453 33.1471 45.0439V7.26063ZM23.3982 54.2533C23.3982 52.1075 21.653 50.3777 19.4978 50.3777C17.3426 50.3777 15.5973 52.1075 15.5973 54.2533C15.5973 56.3991 17.3426 58.1288 19.4978 58.1288C21.653 58.1288 23.3982 56.3947 23.3982 54.2533Z" fill="#2DB7DB"/>
</svg>
