<svg width="85" height="128" viewBox="0 0 85 128" fill="none" xmlns="http://www.w3.org/2000/svg">
<path d="M48.3892 7.82383C47.8389 11.0968 47.839 11.0968 44.5243 11.1031C42.8797 11.1063 41.2383 11.1126 39.5937 11.1031C37.507 11.0904 37.1984 10.7917 37.0934 8.74533C37.0807 8.48477 37.0553 8.22421 37.0362 7.97318C27.0064 6.32083 10.0898 23.0985 9.80346 34.9414C13.1054 35.5897 13.1053 35.5897 13.1053 39.1517C13.1053 40.8454 13.0863 42.5422 13.1085 44.2359C13.1244 45.5546 12.4882 46.2092 11.1904 46.2155C8.75054 46.2282 6.31388 46.2251 3.87403 46.2187C2.54436 46.2155 1.98768 45.4974 2.0004 44.2041C2.02585 41.8749 2.03221 39.5426 2.0004 37.2134C1.98132 35.7422 2.63662 35.0558 4.11579 35.1289C4.84743 35.1638 5.57906 35.1352 6.37749 35.1352C7.39224 28.9803 9.64759 23.5021 13.3217 18.6404C16.983 13.7977 21.5764 10.0672 26.9873 7.14382C23.9972 7.14382 21.0038 7.14382 18.0137 7.14382C17.2725 7.14382 16.525 7.19149 15.787 7.13429C14.101 7.00401 12.8413 7.18832 11.7852 8.96777C10.3347 11.4082 6.8292 11.7672 4.43389 10.1753C2.07994 8.6087 1.396 5.6154 2.74794 3.03202C3.77859 1.06509 5.43274 0.0323777 7.57675 0.00060175C9.75257 -0.0311742 11.2985 1.19855 12.4882 2.96847C12.7841 3.41016 13.363 3.95671 13.8179 3.96306C21.3983 4.02026 28.9787 3.99483 36.559 3.9853C36.6576 3.9853 36.7531 3.92493 36.9726 3.85184C37.0107 3.50231 37.0807 3.09875 37.0903 2.69838C37.1539 0.299292 37.4434 0.0164858 39.9086 0.0164858C41.7632 0.0164858 43.6209 0.0133113 45.4755 0.0196665C47.8835 0.0291993 48.1316 0.270698 48.2016 2.61258C48.2143 3.02567 48.2747 3.43558 48.3193 3.93128C48.8569 3.96306 49.3181 4.01072 49.7825 4.01072C56.8858 4.0139 63.989 4.00119 71.0922 4.02661C71.9574 4.02978 72.4759 3.88044 72.9308 2.99072C74.146 0.604346 76.6749 -0.418846 79.2483 0.213495C81.6087 0.794995 83.3869 3.13053 83.371 5.62176C83.3551 8.03038 81.5928 10.3214 79.2992 10.9125C76.7322 11.5766 74.2955 10.5153 72.899 8.22421C72.6223 7.76982 72.0561 7.19467 71.6171 7.18514C67.2241 7.10887 62.8279 7.13747 58.3554 7.28364C63.725 10.1053 68.3534 13.7596 71.9956 18.5927C75.6665 23.4639 77.9473 28.9326 78.9811 35.1321C79.8527 35.1321 80.6798 35.1352 81.51 35.1321C82.6616 35.1257 83.3455 35.6786 83.3614 36.8353C83.3964 39.3773 83.39 41.9194 83.3582 44.4615C83.3455 45.6118 82.6871 46.2092 81.5419 46.2155C79.0511 46.2282 76.5604 46.225 74.0665 46.2155C72.8068 46.2123 72.266 45.5292 72.2724 44.3058C72.2851 42.0274 72.266 39.7523 72.2787 37.474C72.2883 35.5229 72.6191 35.1956 74.5786 35.1321C74.8426 35.1225 75.1067 35.1003 75.3707 35.0749C75.4152 35.0717 75.4502 35.0113 75.4916 34.9764C74.445 22.8221 62.5193 9.46665 48.3892 7.82383ZM44.9951 8.01449C44.9951 6.34308 44.9951 4.84961 44.9951 3.12735C43.6177 3.12735 42.3167 3.11147 41.0188 3.14007C40.7866 3.14642 40.3604 3.32436 40.3572 3.43558C40.3095 4.84643 40.2999 6.26046 40.354 7.67131C40.3572 7.79523 40.8662 7.99224 41.1429 7.9986C42.393 8.03355 43.6464 8.01449 44.9951 8.01449ZM80.174 38.351C78.5613 38.351 77.063 38.351 75.4979 38.351C75.4979 39.9461 75.4979 41.4428 75.4979 43.003C77.0948 43.003 78.5931 43.003 80.174 43.003C80.174 41.4491 80.174 39.9906 80.174 38.351ZM5.25777 38.3255C5.25777 40.0065 5.25777 41.5031 5.25777 42.9744C6.88327 42.9744 8.38472 42.9744 9.85435 42.9744C9.85435 41.3474 9.85435 39.8476 9.85435 38.3255C8.2702 38.3255 6.81011 38.3255 5.25777 38.3255ZM7.49722 3.1623C6.18346 3.18454 5.11463 4.30306 5.14326 5.62812C5.1687 6.93728 6.31386 8.03991 7.599 7.99225C8.91276 7.94458 9.99113 6.81972 9.96886 5.52326C9.94659 4.22362 8.81098 3.14006 7.49722 3.1623ZM77.8296 3.14324C76.5254 3.11782 75.4311 4.20773 75.4152 5.55503C75.3993 6.87373 76.4809 7.98589 77.7914 7.9986C79.0734 8.01131 80.2281 6.87692 80.2408 5.59317C80.2504 4.30942 79.1307 3.16866 77.8296 3.14324Z" fill="#808080"/>
<path d="M29.9712 71.1597C25.7563 70.3462 24.0131 68.9671 23.6378 66.2471C23.2592 63.4953 24.433 61.5601 27.6109 59.8983C27.4295 59.3517 27.2578 58.7639 27.0414 58.1951C26.0744 55.6212 25.1456 53.0283 24.0958 50.4862C23.5423 49.1453 23.6123 48.0331 24.3598 46.7557C29.9521 37.2134 35.4775 27.6298 41.0284 18.062C42.0782 16.2508 43.2679 16.2381 44.3049 18.0239C49.9067 27.6806 55.4894 37.35 61.1198 46.9909C61.7401 48.0522 61.8323 48.9864 61.3838 50.124C60.1273 53.3175 58.9535 56.5427 57.7065 59.8633C60.6712 61.2837 62.4399 63.4095 61.5715 66.8095C60.7985 69.8314 58.4764 70.9023 55.4162 71.0389C55.4162 72.4339 55.3844 73.8002 55.4257 75.1634C55.4703 76.6124 54.8436 77.3401 53.3644 77.3369C46.2103 77.3274 39.0562 77.3305 31.9021 77.3337C30.5915 77.3337 29.9553 76.695 29.968 75.3795C29.9807 73.9623 29.9712 72.5419 29.9712 71.1597ZM44.3685 24.4395C44.3144 25.3673 44.2635 25.8153 44.2635 26.2634C44.2572 31.1855 44.289 36.1108 44.2381 41.0329C44.2285 42.0084 44.4957 42.5073 45.4023 42.9521C48.2302 44.3407 49.5568 47.1974 48.8569 50.0604C48.138 53.0092 45.6059 55.0048 42.6285 54.973C39.6638 54.938 37.2239 52.9997 36.5209 50.1208C35.802 47.1752 37.1571 44.2804 40.0455 42.9076C40.9139 42.4946 41.1525 42.0084 41.1461 41.1123C41.1111 36.0822 41.1334 31.0552 41.1238 26.0251C41.1238 25.6406 41.0507 25.2561 40.9871 24.6396C40.6944 25.0051 40.5481 25.1481 40.4495 25.3197C36.0628 32.8696 31.6698 40.4196 27.3277 47.995C27.0637 48.4589 27.0415 49.2342 27.226 49.7522C28.2821 52.7455 29.459 55.6943 30.5342 58.678C30.8491 59.5551 31.3072 59.8982 32.2679 59.8919C39.2089 59.8538 46.1531 59.8506 53.0972 59.8919C54.0611 59.8982 54.5128 59.5551 54.8277 58.6812C55.8615 55.7928 57.0322 52.952 57.9928 50.0382C58.2314 49.3105 58.1392 48.246 57.7638 47.5787C54.0356 40.9916 50.2184 34.4584 46.4203 27.9094C45.8222 26.883 45.2115 25.8662 44.3685 24.4395ZM42.8861 62.9805C38.4932 62.9805 34.097 62.9678 29.704 62.9869C27.8049 62.9932 26.7647 63.8353 26.717 65.3097C26.6661 66.854 27.7763 67.8327 29.6912 67.8359C38.3214 67.8486 46.9483 67.8486 55.5784 67.8359C57.538 67.8327 58.6386 66.9239 58.6545 65.3987C58.6704 63.8798 57.5729 62.9964 55.5911 62.9901C51.3572 62.9742 47.1201 62.9837 42.8861 62.9805ZM52.2193 71.0675C45.7872 71.0675 39.5111 71.0675 33.2095 71.0675C33.2095 72.1479 33.2095 73.1139 33.2095 74.1085C39.6065 74.1085 45.8827 74.1085 52.2193 74.1085C52.2193 73.0662 52.2193 72.1288 52.2193 71.0675ZM45.9081 48.7862C45.9972 47.0576 44.6039 45.5323 42.8289 45.4179C41.1143 45.3067 39.5556 46.7366 39.4856 48.4907C39.4125 50.2797 40.7676 51.7763 42.5299 51.8589C44.2731 51.9352 45.8159 50.5339 45.9081 48.7862Z" fill="#808080"/>
<path d="M1.82422 122V104.938H7.07422C8.57422 104.938 9.91406 105.277 11.0938 105.957C12.2812 106.629 13.207 107.59 13.8711 108.84C14.5352 110.082 14.8672 111.496 14.8672 113.082V113.867C14.8672 115.453 14.5391 116.863 13.8828 118.098C13.2344 119.332 12.3164 120.289 11.1289 120.969C9.94141 121.648 8.60156 121.992 7.10938 122H1.82422ZM5.33984 107.785V119.176H7.03906C8.41406 119.176 9.46484 118.727 10.1914 117.828C10.918 116.93 11.2891 115.645 11.3047 113.973V113.07C11.3047 111.336 10.9453 110.023 10.2266 109.133C9.50781 108.234 8.45703 107.785 7.07422 107.785H5.33984ZM21.1719 122H17.6562V104.938H21.1719V122ZM33.2891 117.523C33.2891 116.859 33.0547 116.352 32.5859 116C32.1172 115.641 31.2734 115.266 30.0547 114.875C28.8359 114.477 27.8711 114.086 27.1602 113.703C25.2227 112.656 24.2539 111.246 24.2539 109.473C24.2539 108.551 24.5117 107.73 25.0273 107.012C25.5508 106.285 26.2969 105.719 27.2656 105.312C28.2422 104.906 29.3359 104.703 30.5469 104.703C31.7656 104.703 32.8516 104.926 33.8047 105.371C34.7578 105.809 35.4961 106.43 36.0195 107.234C36.5508 108.039 36.8164 108.953 36.8164 109.977H33.3008C33.3008 109.195 33.0547 108.59 32.5625 108.16C32.0703 107.723 31.3789 107.504 30.4883 107.504C29.6289 107.504 28.9609 107.688 28.4844 108.055C28.0078 108.414 27.7695 108.891 27.7695 109.484C27.7695 110.039 28.0469 110.504 28.6016 110.879C29.1641 111.254 29.9883 111.605 31.0742 111.934C33.0742 112.535 34.5312 113.281 35.4453 114.172C36.3594 115.062 36.8164 116.172 36.8164 117.5C36.8164 118.977 36.2578 120.137 35.1406 120.98C34.0234 121.816 32.5195 122.234 30.6289 122.234C29.3164 122.234 28.1211 121.996 27.043 121.52C25.9648 121.035 25.1406 120.375 24.5703 119.539C24.0078 118.703 23.7266 117.734 23.7266 116.633H27.2539C27.2539 118.516 28.3789 119.457 30.6289 119.457C31.4648 119.457 32.1172 119.289 32.5859 118.953C33.0547 118.609 33.2891 118.133 33.2891 117.523ZM49.4727 114.605H42.7227V119.176H50.6445V122H39.207V104.938H50.6211V107.785H42.7227V111.852H49.4727V114.605ZM66.582 122H63.0664L56.2227 110.773V122H52.707V104.938H56.2227L63.0781 116.188V104.938H66.582V122ZM64.0977 100.531C64.0977 101.414 63.8398 102.156 63.3242 102.758C62.8086 103.352 62.1797 103.648 61.4375 103.648C61.1406 103.648 60.875 103.617 60.6406 103.555C60.4141 103.484 60.0977 103.34 59.6914 103.121C59.2852 102.902 58.9922 102.77 58.8125 102.723C58.6328 102.668 58.4375 102.641 58.2266 102.641C57.9531 102.641 57.7188 102.738 57.5234 102.934C57.3359 103.129 57.2422 103.406 57.2422 103.766L55.2734 103.648C55.2734 102.781 55.5273 102.043 56.0352 101.434C56.5508 100.824 57.1797 100.52 57.9219 100.52C58.1562 100.52 58.375 100.551 58.5781 100.613C58.7891 100.668 59.1289 100.809 59.5977 101.035C60.0664 101.262 60.3906 101.398 60.5703 101.445C60.75 101.492 60.9375 101.516 61.1328 101.516C61.4062 101.516 61.6406 101.422 61.8359 101.234C62.0391 101.039 62.1406 100.762 62.1406 100.402L64.0977 100.531ZM83.668 113.855C83.668 115.535 83.3711 117.008 82.7773 118.273C82.1836 119.539 81.332 120.516 80.2227 121.203C79.1211 121.891 77.8555 122.234 76.4258 122.234C75.0117 122.234 73.75 121.895 72.6406 121.215C71.5312 120.535 70.6719 119.566 70.0625 118.309C69.4531 117.043 69.1445 115.59 69.1367 113.949V113.105C69.1367 111.426 69.4375 109.949 70.0391 108.676C70.6484 107.395 71.5039 106.414 72.6055 105.734C73.7148 105.047 74.9805 104.703 76.4023 104.703C77.8242 104.703 79.0859 105.047 80.1875 105.734C81.2969 106.414 82.1523 107.395 82.7539 108.676C83.3633 109.949 83.668 111.422 83.668 113.094V113.855ZM80.1055 113.082C80.1055 111.293 79.7852 109.934 79.1445 109.004C78.5039 108.074 77.5898 107.609 76.4023 107.609C75.2227 107.609 74.3125 108.07 73.6719 108.992C73.0312 109.906 72.707 111.25 72.6992 113.023V113.855C72.6992 115.598 73.0195 116.949 73.6602 117.91C74.3008 118.871 75.2227 119.352 76.4258 119.352C77.6055 119.352 78.5117 118.891 79.1445 117.969C79.7773 117.039 80.0977 115.688 80.1055 113.914V113.082Z" fill="#2DB7DB"/>
</svg>
