<svg width="145" height="128" viewBox="0 0 145 128" fill="none" xmlns="http://www.w3.org/2000/svg">
<path d="M71.7835 63.7651C61.3974 63.7651 51.0114 63.7714 40.6253 63.7619C35.2462 63.7556 32.008 60.5271 32.0048 55.1729C31.9984 42.8406 31.9984 30.5051 32.0048 18.1729C32.008 12.8409 35.2653 9.61244 40.654 9.59337C43.94 9.58066 47.226 9.54891 50.5088 9.61564C51.5458 9.63788 52.147 9.28834 52.6846 8.42086C53.8839 6.48888 55.239 4.65221 56.4509 2.72659C57.6311 0.84863 59.2566 -0.012485 61.477 0.000225439C68.3671 0.0415342 75.254 0.051067 82.1441 0.000225439C84.4249 -0.0156626 86.1045 0.807346 87.3164 2.75204C88.5475 4.7285 89.8294 6.67954 91.2196 8.54479C91.614 9.07227 92.457 9.53618 93.1091 9.55525C96.446 9.65375 99.786 9.58703 103.123 9.59974C108.473 9.6188 111.779 12.9044 111.779 18.2047C111.785 30.4861 111.785 42.7643 111.779 55.0457C111.775 60.5017 108.521 63.7714 103.101 63.7746C92.6606 63.7714 82.2236 63.7682 71.7835 63.7651ZM35.1922 22.2307C35.488 22.2942 35.6884 22.3737 35.8888 22.3768C42.6167 22.3864 49.3445 22.4086 56.0724 22.361C56.6227 22.3578 57.2717 21.986 57.7043 21.5952C66.0926 14.0674 77.6238 14.0929 86.114 21.6397C86.6039 22.075 87.4087 22.3578 88.0703 22.3642C94.3751 22.415 100.677 22.3927 106.982 22.3864C107.494 22.3864 108.006 22.3451 108.658 22.3165C108.658 21.0613 108.658 19.9587 108.658 18.8561C108.655 14.4202 106.94 12.6915 102.522 12.6915C82.3381 12.6915 62.1545 12.6915 41.9709 12.6915C41.2297 12.6915 40.4854 12.6566 39.7474 12.717C37.3998 12.9076 35.4562 14.4996 35.2335 16.6858C35.0458 18.5066 35.1922 20.3591 35.1922 22.2307ZM35.1349 51.0261C35.1349 52.6848 35.1222 54.1084 35.1381 55.5287C35.1667 58.6269 37.1071 60.6033 40.1832 60.6319C42.833 60.6574 45.4828 60.6383 48.1326 60.6383C66.5221 60.6383 84.9148 60.6415 103.304 60.6351C106.218 60.6351 108.286 59.0654 108.578 56.4153C108.766 54.7025 108.613 52.9549 108.613 51.0229C107.869 51.0229 107.252 51.0229 106.635 51.0229C100.645 51.0229 94.6582 51.0547 88.6684 50.9975C87.4246 50.9848 86.5053 51.3057 85.5605 52.1573C78.6577 58.3918 68.0299 59.3832 60.6149 53.8637C57.4498 51.5091 54.4246 50.8005 50.7474 50.9848C47.1528 51.1659 43.5423 51.0229 39.9382 51.0229C38.4114 51.0261 36.8845 51.0261 35.1349 51.0261ZM71.8407 54.2736C81.5047 54.2704 89.4732 46.3455 89.4923 36.7205C89.5113 27.0384 81.4697 19.0499 71.7485 19.088C62.215 19.1262 54.2751 27.1019 54.2592 36.6538C54.2433 46.2819 62.2181 54.2736 71.8407 54.2736ZM89.4127 25.5449C93.6848 33.0758 93.5958 40.4225 89.4636 47.7945C95.9752 47.7945 102.242 47.7945 108.528 47.7945C108.528 40.324 108.528 32.9615 108.528 25.5449C102.165 25.5449 95.937 25.5449 89.4127 25.5449ZM54.3578 47.8421C50.0603 40.3112 50.1175 32.9741 54.2942 25.5958C47.7922 25.5958 41.5256 25.5958 35.2685 25.5958C35.2685 33.0822 35.2685 40.451 35.2685 47.8421C41.6306 47.8421 47.859 47.8421 54.3578 47.8421ZM55.7384 9.47262C66.6048 9.47262 77.1499 9.47262 88.0322 9.47262C86.6452 7.4199 85.4683 5.55783 84.1449 3.8038C83.8332 3.39071 83.038 3.15556 82.4622 3.15238C75.4226 3.10789 68.3862 3.10154 61.3465 3.15874C60.6944 3.16509 59.8133 3.5051 59.4379 3.99445C58.1687 5.66269 57.0744 7.46438 55.7384 9.47262Z" fill="#808080"/>
<path d="M71.7612 23.9974C78.8771 23.9625 84.533 29.5137 84.5807 36.5839C84.6316 43.6286 79.0076 49.361 71.9775 49.434C64.9506 49.5071 59.1134 43.7048 59.1039 36.6379C59.0944 29.7266 64.7947 24.0324 71.7612 23.9974ZM81.4983 36.6665C81.511 31.4235 77.1817 27.1274 71.8534 27.0988C66.6175 27.0702 62.234 31.4521 62.2372 36.7078C62.2404 41.9159 66.662 46.3137 71.8948 46.3105C77.1276 46.3073 81.4856 41.9318 81.4983 36.6665Z" fill="#808080"/>
<path d="M67.0405 36.9715C67.0882 34.0545 69.404 31.7222 71.6944 31.9573C72.3306 32.024 73.1958 32.7676 73.3708 33.3713C73.4916 33.794 72.7155 34.8552 72.1652 35.0078C71.0359 35.3223 70.5651 35.8753 70.1929 36.9493C69.9925 37.5276 68.9905 38.2076 68.3956 38.1663C67.8199 38.1282 67.3014 37.2257 67.0405 36.9715Z" fill="#808080"/>
<path d="M12.207 115.027H5.45703V122H1.94141V104.938H13.0508V107.785H5.45703V112.191H12.207V115.027ZM29.1055 113.855C29.1055 115.535 28.8086 117.008 28.2148 118.273C27.6211 119.539 26.7695 120.516 25.6602 121.203C24.5586 121.891 23.293 122.234 21.8633 122.234C20.4492 122.234 19.1875 121.895 18.0781 121.215C16.9688 120.535 16.1094 119.566 15.5 118.309C14.8906 117.043 14.582 115.59 14.5742 113.949V113.105C14.5742 111.426 14.875 109.949 15.4766 108.676C16.0859 107.395 16.9414 106.414 18.043 105.734C19.1523 105.047 20.418 104.703 21.8398 104.703C23.2617 104.703 24.5234 105.047 25.625 105.734C26.7344 106.414 27.5898 107.395 28.1914 108.676C28.8008 109.949 29.1055 111.422 29.1055 113.094V113.855ZM25.543 113.082C25.543 111.293 25.2227 109.934 24.582 109.004C23.9414 108.074 23.0273 107.609 21.8398 107.609C20.6602 107.609 19.75 108.07 19.1094 108.992C18.4688 109.906 18.1445 111.25 18.1367 113.023V113.855C18.1367 115.598 18.457 116.949 19.0977 117.91C19.7383 118.871 20.6602 119.352 21.8633 119.352C23.043 119.352 23.9492 118.891 24.582 117.969C25.2148 117.039 25.5352 115.688 25.543 113.914V113.082ZM43.4961 107.785H38.2695V122H34.7539V107.785H29.5977V104.938H43.4961V107.785ZM59.1992 113.855C59.1992 115.535 58.9023 117.008 58.3086 118.273C57.7148 119.539 56.8633 120.516 55.7539 121.203C54.6523 121.891 53.3867 122.234 51.957 122.234C50.543 122.234 49.2812 121.895 48.1719 121.215C47.0625 120.535 46.2031 119.566 45.5938 118.309C44.9844 117.043 44.6758 115.59 44.668 113.949V113.105C44.668 111.426 44.9688 109.949 45.5703 108.676C46.1797 107.395 47.0352 106.414 48.1367 105.734C49.2461 105.047 50.5117 104.703 51.9336 104.703C53.3555 104.703 54.6172 105.047 55.7188 105.734C56.8281 106.414 57.6836 107.395 58.2852 108.676C58.8945 109.949 59.1992 111.422 59.1992 113.094V113.855ZM55.6367 113.082C55.6367 111.293 55.3164 109.934 54.6758 109.004C54.0352 108.074 53.1211 107.609 51.9336 107.609C50.7539 107.609 49.8438 108.07 49.2031 108.992C48.5625 109.906 48.2383 111.25 48.2305 113.023V113.855C48.2305 115.598 48.5508 116.949 49.1914 117.91C49.832 118.871 50.7539 119.352 51.957 119.352C53.1367 119.352 54.043 118.891 54.6758 117.969C55.3086 117.039 55.6289 115.688 55.6367 113.914V113.082ZM75.2539 119.844C74.6211 120.602 73.7266 121.191 72.5703 121.613C71.4141 122.027 70.1328 122.234 68.7266 122.234C67.25 122.234 65.9531 121.914 64.8359 121.273C63.7266 120.625 62.8672 119.688 62.2578 118.461C61.6562 117.234 61.3477 115.793 61.332 114.137V112.977C61.332 111.273 61.6172 109.801 62.1875 108.559C62.7656 107.309 63.5938 106.355 64.6719 105.699C65.7578 105.035 67.0273 104.703 68.4805 104.703C70.5039 104.703 72.0859 105.188 73.2266 106.156C74.3672 107.117 75.043 108.52 75.2539 110.363H71.832C71.6758 109.387 71.3281 108.672 70.7891 108.219C70.2578 107.766 69.5234 107.539 68.5859 107.539C67.3906 107.539 66.4805 107.988 65.8555 108.887C65.2305 109.785 64.9141 111.121 64.9062 112.895V113.984C64.9062 115.773 65.2461 117.125 65.9258 118.039C66.6055 118.953 67.6016 119.41 68.9141 119.41C70.2344 119.41 71.1758 119.129 71.7383 118.566V115.625H68.5391V113.035H75.2539V119.844ZM84.4297 115.754H81.6289V122H78.1133V104.938H84.4531C86.4688 104.938 88.0234 105.387 89.1172 106.285C90.2109 107.184 90.7578 108.453 90.7578 110.094C90.7578 111.258 90.5039 112.23 89.9961 113.012C89.4961 113.785 88.7344 114.402 87.7109 114.863L91.4023 121.836V122H87.6289L84.4297 115.754ZM81.6289 112.906H84.4648C85.3477 112.906 86.0312 112.684 86.5156 112.238C87 111.785 87.2422 111.164 87.2422 110.375C87.2422 109.57 87.0117 108.938 86.5508 108.477C86.0977 108.016 85.3984 107.785 84.4531 107.785H81.6289V112.906ZM103.074 118.484H96.9102L95.7383 122H92L98.3516 104.938H101.609L107.996 122H104.258L103.074 118.484ZM97.8594 115.637H102.125L99.9805 109.25L97.8594 115.637ZM119.855 115.027H113.105V122H109.59V104.938H120.699V107.785H113.105V112.191H119.855V115.027ZM126.477 122H122.961V104.938H126.477V122ZM125.387 100.332H129.078L125.832 103.965H123.078L125.387 100.332ZM139.59 118.484H133.426L132.254 122H128.516L134.867 104.938H138.125L144.512 122H140.773L139.59 118.484ZM134.375 115.637H138.641L136.496 109.25L134.375 115.637Z" fill="#2DB7DB"/>
</svg>
