<svg width="68" height="128" viewBox="0 0 68 128" fill="none" xmlns="http://www.w3.org/2000/svg">
<path d="M33.6977 0C47.3665 0.0444863 59.4894 9.06886 63.1603 21.9699C67.0221 35.5446 61.5475 49.6023 49.5106 56.8599C48.5944 57.4128 48.2731 58.0261 48.3431 59.0238C48.5117 61.3562 48.1841 63.4629 45.8397 64.7498C45.5343 64.9151 45.4229 65.6809 45.4484 66.1544C45.582 68.6138 45.2734 70.8127 42.7731 72.1092C42.4519 72.2776 42.3342 72.9036 42.1974 73.3421C41.0013 77.1615 37.5976 79.6846 33.615 79.6814C29.7977 79.6782 26.3972 77.0916 25.1821 73.3389C25.004 72.7892 24.6668 72.1664 24.2119 71.8581C22.6118 70.7778 21.8356 69.332 21.947 67.4286C22.0329 65.9637 21.9183 64.7689 20.436 63.8188C19.0363 62.9227 18.8709 61.2132 19.0586 59.6466C19.2399 58.1246 18.6387 57.3175 17.3536 56.5103C6.16274 49.4942 0.805896 36.3072 3.83741 23.4951C6.79258 11.004 17.5031 1.57609 30.3703 0.168412C31.4678 0.0476635 32.5843 0.0540191 33.6977 0ZM41.3162 61.8424C44.8567 62.3825 45.2734 62.033 45.2607 58.7506C45.2607 58.4328 45.283 58.1119 45.2416 57.7973C45.0476 56.2911 45.6711 55.4204 47.0421 54.6705C57.619 48.8873 63.0872 36.9459 60.7046 25.0617C58.4047 13.6001 48.5276 4.56303 36.8914 3.2761C24.2755 1.88114 12.3467 9.14193 7.89959 20.9181C3.45251 32.7006 7.42562 45.9639 17.9453 53.0722C20.8177 55.0137 22.8345 56.6724 22.2206 60.4696C21.9343 62.2491 23.6806 61.9536 24.8703 62.0425C26.2668 62.1474 26.0537 61.2005 26.0537 60.3679C26.0537 53.5393 26.0378 46.7106 26.0728 39.8852C26.076 39.1797 26.2414 38.4044 26.569 37.788C28.3408 34.4165 30.1572 31.0673 32.0404 27.7563C32.3617 27.1875 33.0933 26.463 33.6023 26.4884C34.2162 26.5202 35.0083 27.1494 35.3454 27.7372C37.2954 31.1309 39.1468 34.5818 40.9854 38.039C41.2431 38.522 41.3162 39.148 41.3162 39.7104C41.3321 46.431 41.3194 53.1548 41.3162 59.8754C41.3162 60.5046 41.3162 61.1306 41.3162 61.8424ZM29.2633 40.7654C29.2633 47.9086 29.2633 54.8707 29.2633 61.9345C32.244 61.9345 35.126 61.9345 38.078 61.9345C38.078 54.8421 38.078 47.8419 38.078 40.7654C35.1069 40.7654 32.2662 40.7654 29.2633 40.7654ZM25.1312 65.2233C25.1057 65.7222 25.0739 66.0813 25.0676 66.4403C25.0294 69.1222 25.1566 69.2557 27.781 69.2589C31.4328 69.262 35.0878 69.2652 38.7396 69.2589C42.4646 69.2493 42.4709 69.2366 42.2515 65.5601C42.2451 65.4712 42.156 65.3854 42.0638 65.2233C36.5097 65.2233 30.9143 65.2233 25.1312 65.2233ZM28.4395 72.5699C29.1584 75.0612 31.3978 76.6754 33.8917 76.5769C36.3379 76.4784 38.3833 74.8769 38.9464 72.5699C35.4441 72.5699 31.9545 72.5699 28.4395 72.5699ZM37.0759 37.4289C35.9212 35.2967 34.8937 33.3997 33.6945 31.1881C32.4793 33.4283 31.4519 35.3285 30.3131 37.4289C32.6384 37.4289 34.6679 37.4289 37.0759 37.4289Z" fill="#808080"/>
<path d="M5.74609 122H2.23047V104.938H5.74609V122ZM9.01562 122V104.938H14.2656C15.7656 104.938 17.1055 105.277 18.2852 105.957C19.4727 106.629 20.3984 107.59 21.0625 108.84C21.7266 110.082 22.0586 111.496 22.0586 113.082V113.867C22.0586 115.453 21.7305 116.863 21.0742 118.098C20.4258 119.332 19.5078 120.289 18.3203 120.969C17.1328 121.648 15.793 121.992 14.3008 122H9.01562ZM12.5312 107.785V119.176H14.2305C15.6055 119.176 16.6562 118.727 17.3828 117.828C18.1094 116.93 18.4805 115.645 18.4961 113.973V113.07C18.4961 111.336 18.1367 110.023 17.418 109.133C16.6992 108.234 15.6484 107.785 14.2656 107.785H12.5312ZM34.8906 114.605H28.1406V119.176H36.0625V122H24.625V104.938H36.0391V107.785H28.1406V111.852H34.8906V114.605ZM47.7578 118.484H41.5938L40.4219 122H36.6836L43.0352 104.938H46.293L52.6797 122H48.9414L47.7578 118.484ZM42.543 115.637H46.8086L44.6641 109.25L42.543 115.637ZM63.1211 117.523C63.1211 116.859 62.8867 116.352 62.418 116C61.9492 115.641 61.1055 115.266 59.8867 114.875C58.668 114.477 57.7031 114.086 56.9922 113.703C55.0547 112.656 54.0859 111.246 54.0859 109.473C54.0859 108.551 54.3438 107.73 54.8594 107.012C55.3828 106.285 56.1289 105.719 57.0977 105.312C58.0742 104.906 59.168 104.703 60.3789 104.703C61.5977 104.703 62.6836 104.926 63.6367 105.371C64.5898 105.809 65.3281 106.43 65.8516 107.234C66.3828 108.039 66.6484 108.953 66.6484 109.977H63.1328C63.1328 109.195 62.8867 108.59 62.3945 108.16C61.9023 107.723 61.2109 107.504 60.3203 107.504C59.4609 107.504 58.793 107.688 58.3164 108.055C57.8398 108.414 57.6016 108.891 57.6016 109.484C57.6016 110.039 57.8789 110.504 58.4336 110.879C58.9961 111.254 59.8203 111.605 60.9062 111.934C62.9062 112.535 64.3633 113.281 65.2773 114.172C66.1914 115.062 66.6484 116.172 66.6484 117.5C66.6484 118.977 66.0898 120.137 64.9727 120.98C63.8555 121.816 62.3516 122.234 60.4609 122.234C59.1484 122.234 57.9531 121.996 56.875 121.52C55.7969 121.035 54.9727 120.375 54.4023 119.539C53.8398 118.703 53.5586 117.734 53.5586 116.633H57.0859C57.0859 118.516 58.2109 119.457 60.4609 119.457C61.2969 119.457 61.9492 119.289 62.418 118.953C62.8867 118.609 63.1211 118.133 63.1211 117.523Z" fill="#2DB7DB"/>
</svg>
