<svg width="167" height="128" viewBox="0 0 167 128" fill="none" xmlns="http://www.w3.org/2000/svg">
<path d="M82.7246 57.3921C79.763 60.4045 77.1737 63.0451 74.5716 65.6761C72.8602 67.4079 71.1393 69.1365 69.4088 70.8492C65.8429 74.3764 61.1063 74.3859 57.5372 70.862C55.4632 68.8156 53.4019 66.7565 51.3597 64.6784C47.8192 61.0718 47.8224 56.4103 51.3787 52.8355C55.6731 48.5171 59.9898 44.2242 64.4528 39.766C63.9693 39.2544 63.5271 38.7587 63.0595 38.2916C57.6995 32.9374 52.3362 27.5895 46.9762 22.2321C44.3423 19.601 44.3391 17.0272 46.9794 14.3802C51.1688 10.1794 55.355 5.97549 59.5731 1.80331C62.0193 -0.614836 64.7104 -0.592593 67.0994 1.8192C71.7596 6.52204 76.3911 11.2503 81.0609 15.9404C82.2442 17.1288 83.5294 18.2188 84.7763 19.3627C86.5991 17.5674 88.5077 15.95 90.0886 14.0625C92.08 11.6856 94.6375 10.4845 97.4813 9.56617C102.975 7.79625 108.437 5.92783 113.905 4.07529C115.263 3.61454 116.542 3.61454 117.608 4.65679C118.67 5.69586 118.721 6.9669 118.26 8.33327C116.027 14.9204 113.825 21.5171 111.57 28.0979C111.357 28.7175 110.94 29.3213 110.476 29.7884C107.979 32.305 105.437 34.7772 102.797 37.3733C103.299 37.9167 103.668 38.3425 104.066 38.7397C109.461 44.1352 114.862 49.5212 120.254 54.92C122.99 57.6591 123 60.1662 120.273 62.9021C116.16 67.0298 112.035 71.1448 107.902 75.2534C105.262 77.8813 102.679 77.8749 100.039 75.2439C94.7107 69.9341 89.3888 64.618 84.086 59.2828C83.6057 58.803 83.2749 58.1706 82.7246 57.3921ZM74.6702 60.5507C85.5143 49.7341 96.4252 38.8509 107.174 28.1297C102.876 23.7764 98.442 19.2896 94.0808 14.8728C83.1381 25.8037 72.2622 36.6647 61.5644 47.3509C66.0019 51.8186 70.4267 56.2768 74.6702 60.5507ZM82.4319 21.4599C80.1098 19.1784 77.8099 16.9414 75.5355 14.6789C71.9822 11.1423 68.4354 7.59924 64.9077 4.04034C63.9915 3.11884 63.0499 2.75341 62.0256 3.77342C57.5945 8.17439 53.1792 12.5944 48.7671 17.0176C48.0927 17.6945 47.8574 18.527 48.5381 19.2864C49.6165 20.4876 50.7934 21.5965 52.0404 22.858C54.582 20.2842 56.9742 17.8915 59.3313 15.4701C60.1934 14.5836 61.119 13.9354 62.1751 14.9999C63.2599 16.0929 62.4805 16.9986 61.6248 17.8216C60.7469 18.6668 59.8912 19.5311 59.0355 20.3954C57.4863 21.9556 55.9435 23.519 54.5566 24.9235C55.3073 25.8005 55.9085 26.5027 56.672 27.3988C57.6931 26.2994 58.6315 25.2953 59.5604 24.2848C60.3588 23.4173 61.2654 23.1281 62.172 24.0306C63.1072 24.9648 62.665 25.8291 61.8443 26.6235C60.8359 27.599 59.8657 28.6095 58.8732 29.6073C59.6494 30.4334 60.2602 31.0848 61.2526 32.143C62.2292 30.9768 63.0881 29.9091 63.9947 28.8828C64.7836 27.9867 65.7347 27.5323 66.7081 28.5618C67.6052 29.5119 67.1598 30.4144 66.3264 31.1706C65.3148 32.089 64.2746 32.9819 63.4317 33.7254C64.6913 35.1394 65.6902 36.2611 66.5586 37.2335C71.8455 31.9777 77.0528 26.8046 82.4319 21.4599ZM97.1919 67.8019C97.5831 67.4397 97.9744 67.1029 98.3402 66.7374C100.328 64.7578 102.307 62.7718 104.295 60.7922C105.17 59.9215 106.086 58.8252 107.339 60.1249C108.488 61.3196 107.524 62.2125 106.659 63.0578C105.335 64.3542 104.028 65.6666 102.72 66.9789C101.655 68.0466 100.599 69.1238 99.3454 70.3917C100.373 71.3163 101.257 72.0694 102.091 72.8765C103.754 74.4844 104.244 74.5035 105.876 72.8765C109.922 68.841 113.962 64.7991 118.002 60.7572C119.519 59.2383 119.529 58.6123 117.999 57.0839C113.507 52.594 108.997 48.1231 104.524 43.6173C103.264 42.3494 102.11 40.9799 101.006 39.7597C95.5091 45.276 90.305 50.4968 85.1231 55.6953C86.0201 56.6422 87.0253 57.7004 88.3105 59.0572C89.357 57.8878 90.2922 56.8202 91.2529 55.7779C92.0068 54.9581 92.8784 54.7293 93.7405 55.5714C94.6025 56.4198 94.3671 57.3032 93.5718 58.0626C92.5444 59.0445 91.4788 59.9882 90.3368 61.0305C91.2338 61.971 91.9018 62.6701 92.7352 63.544C93.6832 62.5112 94.453 61.6406 95.2546 60.7985C96.1135 59.9024 97.0328 58.8348 98.2893 60.1376C99.46 61.3514 98.4738 62.2507 97.5959 63.0578C96.7052 63.8744 95.7763 64.6466 94.7329 65.549C95.735 66.4642 96.4189 67.0933 97.1919 67.8019ZM67.7419 67.9735C63.1931 63.4613 58.7078 59.0127 54.2131 54.5514C51.1561 57.0362 51.0034 59.8897 53.8822 62.7813C55.7463 64.6529 57.6167 66.5214 59.484 68.3898C62.2897 71.1924 65.1621 71.0462 67.7419 67.9735ZM109.28 25.1078C110.18 22.4672 111.026 20.084 111.783 17.6722C111.885 17.3513 111.653 16.7952 111.395 16.5092C109.875 14.8442 108.338 13.1855 106.719 11.6157C106.194 11.1041 105.3 10.4368 104.76 10.5735C102.243 11.2026 99.7939 12.0924 97.0805 12.963C101.292 17.1574 105.192 21.0405 109.28 25.1078ZM72.2208 63.5408C67.6624 58.9809 63.2026 54.5196 58.7555 50.071C58.1384 50.6016 57.4291 51.2085 56.5766 51.9394C61.1795 56.6359 65.6011 61.1449 70.1182 65.7524C71.047 64.7769 71.661 64.1318 72.2208 63.5408ZM113.208 13.5509C113.953 11.2884 114.624 9.24524 115.41 6.85886C112.951 7.70093 110.915 8.4 108.749 9.14038C109.544 10.0682 110.113 10.8277 110.778 11.4886C111.443 12.1464 112.203 12.7088 113.208 13.5509Z" fill="#808080"/>
<path d="M6.32031 104.938L10.7031 117.312L15.0625 104.938H19.6797V122H16.1523V117.336L16.5039 109.285L11.8984 122H9.48438L4.89062 109.297L5.24219 117.336V122H1.72656V104.938H6.32031ZM33.0156 114.605H26.2656V119.176H34.1875V122H22.75V104.938H34.1641V107.785H26.2656V111.852H33.0156V114.605ZM49.3281 107.785H44.1016V122H40.5859V107.785H35.4297V104.938H49.3281V107.785ZM65.0312 113.855C65.0312 115.535 64.7344 117.008 64.1406 118.273C63.5469 119.539 62.6953 120.516 61.5859 121.203C60.4844 121.891 59.2188 122.234 57.7891 122.234C56.375 122.234 55.1133 121.895 54.0039 121.215C52.8945 120.535 52.0352 119.566 51.4258 118.309C50.8164 117.043 50.5078 115.59 50.5 113.949V113.105C50.5 111.426 50.8008 109.949 51.4023 108.676C52.0117 107.395 52.8672 106.414 53.9688 105.734C55.0781 105.047 56.3438 104.703 57.7656 104.703C59.1875 104.703 60.4492 105.047 61.5508 105.734C62.6602 106.414 63.5156 107.395 64.1172 108.676C64.7266 109.949 65.0312 111.422 65.0312 113.094V113.855ZM61.4688 113.082C61.4688 111.293 61.1484 109.934 60.5078 109.004C59.8672 108.074 58.9531 107.609 57.7656 107.609C56.5859 107.609 55.6758 108.07 55.0352 108.992C54.3945 109.906 54.0703 111.25 54.0625 113.023V113.855C54.0625 115.598 54.3828 116.949 55.0234 117.91C55.6641 118.871 56.5859 119.352 57.7891 119.352C58.9688 119.352 59.875 118.891 60.5078 117.969C61.1406 117.039 61.4609 115.688 61.4688 113.914V113.082ZM67.5859 122V104.938H72.8359C74.3359 104.938 75.6758 105.277 76.8555 105.957C78.043 106.629 78.9688 107.59 79.6328 108.84C80.2969 110.082 80.6289 111.496 80.6289 113.082V113.867C80.6289 115.453 80.3008 116.863 79.6445 118.098C78.9961 119.332 78.0781 120.289 76.8906 120.969C75.7031 121.648 74.3633 121.992 72.8711 122H67.5859ZM71.1016 107.785V119.176H72.8008C74.1758 119.176 75.2266 118.727 75.9531 117.828C76.6797 116.93 77.0508 115.645 77.0664 113.973V113.07C77.0664 111.336 76.707 110.023 75.9883 109.133C75.2695 108.234 74.2188 107.785 72.8359 107.785H71.1016ZM97.2109 113.855C97.2109 115.535 96.9141 117.008 96.3203 118.273C95.7266 119.539 94.875 120.516 93.7656 121.203C92.6641 121.891 91.3984 122.234 89.9688 122.234C88.5547 122.234 87.293 121.895 86.1836 121.215C85.0742 120.535 84.2148 119.566 83.6055 118.309C82.9961 117.043 82.6875 115.59 82.6797 113.949V113.105C82.6797 111.426 82.9805 109.949 83.582 108.676C84.1914 107.395 85.0469 106.414 86.1484 105.734C87.2578 105.047 88.5234 104.703 89.9453 104.703C91.3672 104.703 92.6289 105.047 93.7305 105.734C94.8398 106.414 95.6953 107.395 96.2969 108.676C96.9062 109.949 97.2109 111.422 97.2109 113.094V113.855ZM93.6484 113.082C93.6484 111.293 93.3281 109.934 92.6875 109.004C92.0469 108.074 91.1328 107.609 89.9453 107.609C88.7656 107.609 87.8555 108.07 87.2148 108.992C86.5742 109.906 86.25 111.25 86.2422 113.023V113.855C86.2422 115.598 86.5625 116.949 87.2031 117.91C87.8438 118.871 88.7656 119.352 89.9688 119.352C91.1484 119.352 92.0547 118.891 92.6875 117.969C93.3203 117.039 93.6406 115.688 93.6484 113.914V113.082ZM103.281 119.176H110.746V122H99.7656V104.938H103.281V119.176ZM126.039 113.855C126.039 115.535 125.742 117.008 125.148 118.273C124.555 119.539 123.703 120.516 122.594 121.203C121.492 121.891 120.227 122.234 118.797 122.234C117.383 122.234 116.121 121.895 115.012 121.215C113.902 120.535 113.043 119.566 112.434 118.309C111.824 117.043 111.516 115.59 111.508 113.949V113.105C111.508 111.426 111.809 109.949 112.41 108.676C113.02 107.395 113.875 106.414 114.977 105.734C116.086 105.047 117.352 104.703 118.773 104.703C120.195 104.703 121.457 105.047 122.559 105.734C123.668 106.414 124.523 107.395 125.125 108.676C125.734 109.949 126.039 111.422 126.039 113.094V113.855ZM122.477 113.082C122.477 111.293 122.156 109.934 121.516 109.004C120.875 108.074 119.961 107.609 118.773 107.609C117.594 107.609 116.684 108.07 116.043 108.992C115.402 109.906 115.078 111.25 115.07 113.023V113.855C115.07 115.598 115.391 116.949 116.031 117.91C116.672 118.871 117.594 119.352 118.797 119.352C119.977 119.352 120.883 118.891 121.516 117.969C122.148 117.039 122.469 115.688 122.477 113.914V113.082ZM142.094 119.844C141.461 120.602 140.566 121.191 139.41 121.613C138.254 122.027 136.973 122.234 135.566 122.234C134.09 122.234 132.793 121.914 131.676 121.273C130.566 120.625 129.707 119.688 129.098 118.461C128.496 117.234 128.188 115.793 128.172 114.137V112.977C128.172 111.273 128.457 109.801 129.027 108.559C129.605 107.309 130.434 106.355 131.512 105.699C132.598 105.035 133.867 104.703 135.32 104.703C137.344 104.703 138.926 105.188 140.066 106.156C141.207 107.117 141.883 108.52 142.094 110.363H138.672C138.516 109.387 138.168 108.672 137.629 108.219C137.098 107.766 136.363 107.539 135.426 107.539C134.23 107.539 133.32 107.988 132.695 108.887C132.07 109.785 131.754 111.121 131.746 112.895V113.984C131.746 115.773 132.086 117.125 132.766 118.039C133.445 118.953 134.441 119.41 135.754 119.41C137.074 119.41 138.016 119.129 138.578 118.566V115.625H135.379V113.035H142.094V119.844ZM148.691 122H145.176V104.938H148.691V122ZM147.602 100.332H151.293L148.047 103.965H145.293L147.602 100.332ZM161.805 118.484H155.641L154.469 122H150.73L157.082 104.938H160.34L166.727 122H162.988L161.805 118.484ZM156.59 115.637H160.855L158.711 109.25L156.59 115.637Z" fill="#2DB7DB"/>
</svg>
