<svg width="135" height="128" viewBox="0 0 135 128" fill="none" xmlns="http://www.w3.org/2000/svg">
<path d="M67.147 0.0121017C75.2045 0.0121017 83.2621 0.00257199 91.3196 0.0152824C100.185 0.0279927 106.188 6.05588 106.185 14.9023C106.181 29.4652 106.003 44.0313 106.248 58.5879C106.395 67.3294 98.741 73.6846 91.3769 73.4399C84.3436 73.208 77.2977 73.2842 70.2549 73.2842C61.0394 73.2842 51.824 73.3732 42.6086 73.37C33.9975 73.3637 28.0045 67.3453 28.0013 58.7722C27.9981 43.9963 28.0013 29.2237 28.0045 14.4479C28.0045 6.22428 34.0898 0.0851925 42.335 0.0184631C46.4704 -0.0164905 50.6057 0.00892097 54.741 0.00892097C58.8764 0.0120986 63.0117 0.0121017 67.147 0.0121017ZM31.2841 18.8807C31.211 19.1539 31.1601 19.2556 31.1601 19.3605C31.1569 32.9638 31.0678 46.5702 31.2014 60.1735C31.2523 65.3943 35.938 69.9923 41.1389 70.1925C46.6389 70.4022 52.1517 70.4244 57.658 70.434C62.2546 70.4435 66.8512 70.2624 71.4446 70.2687C77.9593 70.2782 84.4709 70.4594 90.9824 70.4308C98.4292 70.399 103.067 65.6644 103.067 58.286C103.064 45.7917 103.064 33.3006 103.064 20.8063C103.064 20.193 103.064 19.5829 103.064 18.8807C79.0027 18.8807 55.1768 18.8807 31.2841 18.8807ZM102.972 15.5156C103.484 8.52803 98.6932 3.16427 91.924 3.14202C75.3859 3.09118 58.8477 3.11978 42.3096 3.13884C41.3648 3.13884 40.4009 3.26593 39.4784 3.47883C34.0707 4.71809 30.1231 10.603 31.3827 15.5156C55.2118 15.5156 79.044 15.5156 102.972 15.5156Z" fill="#808080"/>
<path d="M63.8768 44.616C63.8768 49.7478 63.8832 54.8796 63.8736 60.0114C63.8704 61.8481 63.4696 62.2389 61.6342 62.2389C54.9668 62.2421 48.2962 62.2421 41.6287 62.2358C39.5993 62.2326 39.1666 61.8227 39.1666 59.8589C39.1603 49.6461 39.1603 39.4365 39.1666 29.2237C39.1666 27.1233 39.5452 26.8151 41.7051 26.8215C48.2198 26.8437 54.7345 26.831 61.2493 26.8437C63.5619 26.8469 63.8768 27.1773 63.8768 29.5351C63.8768 34.5621 63.8768 39.5891 63.8768 44.616ZM43.7505 29.9959C49.4223 38.4928 54.9063 46.7132 60.6322 55.2895C60.6322 46.567 60.6322 38.3212 60.6322 29.9959C55.0686 29.9959 49.6354 29.9959 43.7505 29.9959ZM59.2866 59.0359C53.6085 50.5359 48.1244 42.3249 42.6403 34.1109C42.5544 34.1649 42.4717 34.2221 42.3858 34.2761C42.3858 42.5029 42.3858 50.7265 42.3858 59.0359C47.9622 59.0359 53.4399 59.0359 59.2866 59.0359Z" fill="#808080"/>
<path d="M82.7054 45.9919C86.0391 45.9919 89.3729 45.9824 92.7066 45.9951C94.5547 46.0014 94.9969 46.4145 95.0064 48.2003C95.0255 52.1627 95.0287 56.1284 95.0064 60.094C94.9969 61.74 94.4784 62.2357 92.7797 62.2325C86.0073 62.2166 79.2381 62.169 72.4657 62.1563C71.1806 62.1531 70.4171 61.5907 70.4012 60.3038C70.3503 56.0267 70.3122 51.7465 70.3567 47.4663C70.3694 46.2588 71.3142 45.9855 72.3894 45.9919C75.8281 46.0141 79.2667 45.9983 82.7086 45.9983C82.7054 45.9951 82.7054 45.9951 82.7054 45.9919ZM91.7999 49.2203C85.6638 49.2203 79.6262 49.2203 73.5313 49.2203C73.5313 52.5409 73.5313 55.7375 73.5313 59.0041C79.6612 59.0041 85.7019 59.0041 91.7999 59.0041C91.7999 55.6962 91.7999 52.5028 91.7999 49.2203Z" fill="#808080"/>
<path d="M82.4382 39.9259C79.1586 39.9259 75.8757 39.9386 72.5961 39.9227C70.8211 39.9132 70.328 39.4206 70.3185 37.6761C70.3058 34.7686 70.3439 31.8611 70.2994 28.9536C70.2771 27.476 70.9292 26.831 72.3893 26.831C79.2158 26.8373 86.0392 26.831 92.8656 26.8056C94.3194 26.7992 95.0255 27.457 95.0224 28.9028C95.016 31.9151 95.0287 34.9275 95.016 37.9399C95.0096 39.319 94.278 39.9259 92.9133 39.9163C89.4206 39.8941 85.9278 39.91 82.4382 39.91C82.4382 39.9195 82.4382 39.9227 82.4382 39.9259ZM91.8922 30.0404C85.6574 30.0404 79.6039 30.0404 73.5854 30.0404C73.5854 32.3473 73.5854 34.5367 73.5854 36.8214C79.4417 36.8214 85.1548 36.8373 90.8711 36.7832C91.2147 36.7801 91.835 36.2589 91.8477 35.9602C91.9368 34.0187 91.8922 32.0772 91.8922 30.0404Z" fill="#808080"/>
<path d="M56.1979 7.04728C57.429 7.09495 58.4851 8.19438 58.4787 9.41774C58.4692 10.7364 57.3399 11.7818 56.0039 11.7056C54.741 11.6357 53.7517 10.549 53.809 9.29699C53.8663 8.06727 54.9987 6.99962 56.1979 7.04728Z" fill="#808080"/>
<path d="M44.4154 9.36689C44.4282 10.622 43.3562 11.7119 42.0996 11.7183C40.8018 11.7246 39.7647 10.7047 39.7552 9.42092C39.7456 8.15625 40.8049 7.05364 42.0424 7.04729C43.2703 7.03458 44.4027 8.14035 44.4154 9.36689Z" fill="#808080"/>
<path d="M49.1361 7.03779C50.3449 7.06321 51.4424 8.17854 51.4487 9.38601C51.4551 10.692 50.3163 11.7755 48.9961 11.712C47.711 11.6516 46.7535 10.6221 46.7789 9.32244C46.8044 8.09908 47.9241 7.01237 49.1361 7.03779Z" fill="#808080"/>
<path d="M15.3047 117.078L17.6016 104.938H21.1055L17.3203 122H13.7812L11.0039 110.586L8.22656 122H4.6875L0.902344 104.938H4.40625L6.71484 117.055L9.52734 104.938H12.5039L15.3047 117.078ZM33.2812 114.605H26.5312V119.176H34.4531V122H23.0156V104.938H34.4297V107.785H26.5312V111.852H33.2812V114.605ZM36.5156 122V104.938H42.4922C44.5625 104.938 46.1328 105.336 47.2031 106.133C48.2734 106.922 48.8086 108.082 48.8086 109.613C48.8086 110.449 48.5938 111.188 48.1641 111.828C47.7344 112.461 47.1367 112.926 46.3711 113.223C47.2461 113.441 47.9336 113.883 48.4336 114.547C48.9414 115.211 49.1953 116.023 49.1953 116.984C49.1953 118.625 48.6719 119.867 47.625 120.711C46.5781 121.555 45.0859 121.984 43.1484 122H36.5156ZM40.0312 114.57V119.176H43.043C43.8711 119.176 44.5156 118.98 44.9766 118.59C45.4453 118.191 45.6797 117.645 45.6797 116.949C45.6797 115.387 44.8711 114.594 43.2539 114.57H40.0312ZM40.0312 112.086H42.6328C44.4062 112.055 45.293 111.348 45.293 109.965C45.293 109.191 45.0664 108.637 44.6133 108.301C44.168 107.957 43.4609 107.785 42.4922 107.785H40.0312V112.086ZM51.8438 122V104.938H57.0938C58.5938 104.938 59.9336 105.277 61.1133 105.957C62.3008 106.629 63.2266 107.59 63.8906 108.84C64.5547 110.082 64.8867 111.496 64.8867 113.082V113.867C64.8867 115.453 64.5586 116.863 63.9023 118.098C63.2539 119.332 62.3359 120.289 61.1484 120.969C59.9609 121.648 58.6211 121.992 57.1289 122H51.8438ZM55.3594 107.785V119.176H57.0586C58.4336 119.176 59.4844 118.727 60.2109 117.828C60.9375 116.93 61.3086 115.645 61.3242 113.973V113.07C61.3242 111.336 60.9648 110.023 60.2461 109.133C59.5273 108.234 58.4766 107.785 57.0938 107.785H55.3594ZM77.7188 114.605H70.9688V119.176H78.8906V122H67.4531V104.938H78.8672V107.785H70.9688V111.852H77.7188V114.605ZM89.8008 117.523C89.8008 116.859 89.5664 116.352 89.0977 116C88.6289 115.641 87.7852 115.266 86.5664 114.875C85.3477 114.477 84.3828 114.086 83.6719 113.703C81.7344 112.656 80.7656 111.246 80.7656 109.473C80.7656 108.551 81.0234 107.73 81.5391 107.012C82.0625 106.285 82.8086 105.719 83.7773 105.312C84.7539 104.906 85.8477 104.703 87.0586 104.703C88.2773 104.703 89.3633 104.926 90.3164 105.371C91.2695 105.809 92.0078 106.43 92.5312 107.234C93.0625 108.039 93.3281 108.953 93.3281 109.977H89.8125C89.8125 109.195 89.5664 108.59 89.0742 108.16C88.582 107.723 87.8906 107.504 87 107.504C86.1406 107.504 85.4727 107.688 84.9961 108.055C84.5195 108.414 84.2812 108.891 84.2812 109.484C84.2812 110.039 84.5586 110.504 85.1133 110.879C85.6758 111.254 86.5 111.605 87.5859 111.934C89.5859 112.535 91.043 113.281 91.957 114.172C92.8711 115.062 93.3281 116.172 93.3281 117.5C93.3281 118.977 92.7695 120.137 91.6523 120.98C90.5352 121.816 89.0312 122.234 87.1406 122.234C85.8281 122.234 84.6328 121.996 83.5547 121.52C82.4766 121.035 81.6523 120.375 81.082 119.539C80.5195 118.703 80.2383 117.734 80.2383 116.633H83.7656C83.7656 118.516 84.8906 119.457 87.1406 119.457C87.9766 119.457 88.6289 119.289 89.0977 118.953C89.5664 118.609 89.8008 118.133 89.8008 117.523ZM99.457 122H95.9414V104.938H99.457V122ZM116.227 119.844C115.594 120.602 114.699 121.191 113.543 121.613C112.387 122.027 111.105 122.234 109.699 122.234C108.223 122.234 106.926 121.914 105.809 121.273C104.699 120.625 103.84 119.688 103.23 118.461C102.629 117.234 102.32 115.793 102.305 114.137V112.977C102.305 111.273 102.59 109.801 103.16 108.559C103.738 107.309 104.566 106.355 105.645 105.699C106.73 105.035 108 104.703 109.453 104.703C111.477 104.703 113.059 105.188 114.199 106.156C115.34 107.117 116.016 108.52 116.227 110.363H112.805C112.648 109.387 112.301 108.672 111.762 108.219C111.23 107.766 110.496 107.539 109.559 107.539C108.363 107.539 107.453 107.988 106.828 108.887C106.203 109.785 105.887 111.121 105.879 112.895V113.984C105.879 115.773 106.219 117.125 106.898 118.039C107.578 118.953 108.574 119.41 109.887 119.41C111.207 119.41 112.148 119.129 112.711 118.566V115.625H109.512V113.035H116.227V119.844ZM132.961 122H129.445L122.602 110.773V122H119.086V104.938H122.602L129.457 116.188V104.938H132.961V122Z" fill="#2DB7DB"/>
</svg>
