<svg width="31" height="30" viewBox="0 0 31 30" fill="none" xmlns="http://www.w3.org/2000/svg">
<path d="M30.8913 21.186C30.7662 23.5899 30.2003 25.7176 28.388 27.4718C26.5757 29.2318 24.376 29.7811 21.894 29.8948C19.3358 30.0351 11.6657 30.0351 9.10596 29.8948C6.62248 29.7737 4.43037 29.2259 2.612 27.4718C0.79363 25.7176 0.226152 23.5884 0.10869 21.186C-0.0362301 18.7099 -0.0362301 11.2857 0.10869 8.80805C0.233779 6.40421 0.79363 4.27649 2.612 2.52233C4.43037 0.76818 6.63011 0.2189 9.10596 0.105205C11.6642 -0.0350683 19.3343 -0.0350683 21.894 0.105205C24.3775 0.226283 26.5757 0.774087 28.388 2.52824C30.2064 4.28239 30.7738 6.41011 30.8913 8.81395C31.0362 11.2916 31.0362 18.7099 30.8913 21.186ZM28.208 15.0007C28.208 12.8184 28.3941 8.13326 27.5856 6.15762C27.0395 4.83905 25.9945 3.82761 24.6399 3.30639C22.6064 2.52972 17.7585 2.70395 15.5038 2.70395C13.2492 2.70395 8.40882 2.52381 6.36773 3.30639C5.00548 3.83499 3.96052 4.84644 3.42203 6.15762C2.61963 8.12588 2.79963 12.8184 2.79963 15.0007C2.79963 17.1831 2.612 21.8682 3.42203 23.8439C3.96815 25.1624 5.0131 26.1739 6.36773 26.6951C8.40119 27.4718 13.2492 27.2975 15.5038 27.2975C17.7585 27.2975 22.6003 27.4777 24.6399 26.6951C26.0022 26.1665 27.0471 25.155 27.5856 23.8439C28.3941 21.8756 28.208 17.1831 28.208 15.0007ZM23.45 15.0007C23.45 19.2577 19.9018 22.6921 15.5038 22.6921C11.1059 22.6921 7.5576 19.2577 7.5576 15.0007C7.5576 10.7438 11.1059 7.30934 15.5038 7.30934C19.9018 7.30934 23.45 10.7438 23.45 15.0007ZM20.6691 15.0007C20.6691 12.2425 18.3519 9.99963 15.5023 9.99963C12.6527 9.99963 10.3355 12.2425 10.3355 15.0007C10.3355 17.759 12.6588 20.0018 15.5023 20.0018C18.3458 20.0018 20.6691 17.759 20.6691 15.0007ZM23.775 8.78885C22.7453 8.78885 21.9215 7.9856 21.9215 6.99483C21.9215 6.00406 22.7514 5.20081 23.775 5.20081C24.7985 5.20081 25.6284 6.00406 25.6284 6.99483C25.6284 7.99151 24.7985 8.78885 23.775 8.78885Z" fill="#E5E5E5"/>
</svg>
