<svg width="30" height="30" viewBox="0 0 30 30" fill="none" xmlns="http://www.w3.org/2000/svg">
<path d="M0 3.60266C0 1.61448 1.61448 0 3.60266 0C5.59084 0 7.20532 1.61448 7.20532 3.60266C7.20384 5.59084 5.59084 7.23781 3.60266 7.23781C1.613 7.23781 0 5.59084 0 3.60266ZM0.49483 30V9.97046H6.71492V30H0.49483ZM23.7873 30V20.2496C23.7873 17.9261 23.74 14.9453 20.5539 14.9453C17.3205 14.9453 16.8242 17.4697 16.8242 20.0812V29.9985H10.6115V9.97046H16.5761V12.7031H16.6632C17.4934 11.13 19.5214 9.46824 22.548 9.46824C28.8434 9.46824 30 13.613 30 18.997V30H29.9926H23.7873V30Z" fill="#E5E5E5"/>
</svg>
