<svg width="340" height="417" viewBox="0 0 340 417" fill="none" xmlns="http://www.w3.org/2000/svg">
<path fill-rule="evenodd" clip-rule="evenodd" d="M170.32 38.6642L195.879 46.966H222.758L244.5 62.7641L270.059 71.0659L285.857 92.8072L307.598 108.605L315.9 134.165L331.698 155.906V182.785L340 208.344L331.698 233.904V260.782L315.9 282.524L307.598 308.071L285.857 323.869L270.059 345.622L244.5 353.924L222.758 369.722H195.879L170.32 378.024L144.761 369.722H117.882L96.1405 353.924L70.581 345.622L54.783 323.869L33.0417 308.071L24.7399 282.524L8.94188 260.782V233.904L0.640015 208.344L8.94188 182.785V155.906L24.7399 134.165L33.0417 108.605L54.783 92.8072L70.581 71.0659L96.1405 62.7641L117.882 46.966H144.761L170.32 38.6642Z" fill="#1A4266"/>
<path d="M114.951 70.3771L107.992 73.4713L110.21 78.4571L116.154 75.8183L116.726 77.1143L110.783 79.7532L113.433 85.7314L111.985 86.3736L105.972 72.8291L114.379 69.0927L114.951 70.3771Z" fill="#2DB7DB"/>
<path d="M133.656 78.1535L124.899 80.9792L120.345 66.8742L129.103 64.0485L129.535 65.3913L122.284 67.7266L123.883 72.7007L130.072 70.704L130.504 72.0468L124.327 74.0434L125.973 79.1343L133.224 76.7874L133.656 78.1535Z" fill="#2DB7DB"/>
<path d="M149.022 74.7673L147.201 75.1293L142.589 69.3495L139.098 70.0501L140.394 76.4954L138.841 76.8107L135.91 62.2737L141.479 61.1528C142.764 60.8959 143.873 61.0477 144.807 61.6198C145.753 62.192 146.349 63.091 146.594 64.3287C146.804 65.3679 146.687 66.2787 146.255 67.0727C145.823 67.8666 145.146 68.4621 144.212 68.8591L149.022 74.7673ZM145.076 64.6673C144.901 63.815 144.504 63.2078 143.885 62.8458C143.254 62.4956 142.519 62.4021 141.643 62.5773L137.766 63.3596L138.841 68.684L142.717 67.9017C143.605 67.7265 144.258 67.3529 144.69 66.7924C145.122 66.232 145.251 65.5197 145.076 64.6673Z" fill="#2DB7DB"/>
<path d="M165.451 73.1911L163.956 73.3078L155.211 62.0519L156.11 73.9033L154.534 74.0201L153.413 59.2379L154.907 59.1211L163.653 70.3421L162.754 58.5256L164.33 58.4089L165.451 73.1911Z" fill="#2DB7DB"/>
<path d="M182.241 73.5997L180.56 73.5296L179.521 70.1318L173.052 69.8516L171.721 73.156L170.04 73.0859L176.123 58.5023L177.454 58.5606L182.241 73.5997ZM179.124 68.7307L176.707 60.7908L173.589 68.4972L179.124 68.7307Z" fill="#2DB7DB"/>
<path d="M197.642 75.8649L196.16 75.6197L190.31 62.6123L188.395 74.347L186.83 74.0901L189.224 59.4597L190.707 59.7049L196.568 72.6656L198.471 60.9776L200.036 61.2345L197.642 75.8649Z" fill="#2DB7DB"/>
<path d="M216.103 73.0393C215.659 74.5339 215.309 75.573 215.029 76.1569C214.48 77.3128 213.791 78.1185 212.939 78.5739C211.794 79.1927 210.475 79.2744 208.957 78.8307L204.088 77.3829L208.303 63.1611L213.172 64.609C214.69 65.0527 215.753 65.8467 216.371 66.991C216.827 67.8317 216.99 68.8358 216.85 70.0034C216.78 70.5989 216.523 71.6148 216.103 73.0393ZM214.585 72.5839C214.947 71.3579 215.169 70.4938 215.239 70.0034C215.379 69.0927 215.297 68.3454 214.994 67.7616C214.538 66.8742 213.709 66.2554 212.507 65.8934L209.412 64.971L206.003 76.4721L209.097 77.3829C210.3 77.7332 211.327 77.6631 212.203 77.1727C212.763 76.8574 213.254 76.2269 213.686 75.2695C213.908 74.7557 214.211 73.8683 214.585 72.5839Z" fill="#2DB7DB"/>
<path d="M231.375 79.4028C230.651 81.0725 230.126 82.1701 229.776 82.7072C229.25 83.4779 228.561 84.0266 227.721 84.3653C226.366 84.9024 225.012 84.879 223.634 84.2835C222.256 83.688 221.299 82.7189 220.762 81.3761C220.423 80.5354 220.365 79.6597 220.551 78.749C220.692 78.1301 221.124 76.9858 221.847 75.3161C222.571 73.6464 223.097 72.5488 223.447 72.0117C223.973 71.2411 224.661 70.6923 225.502 70.3537C226.857 69.8166 228.211 69.84 229.589 70.4354C230.967 71.0309 231.924 72.0001 232.461 73.3428C232.8 74.1835 232.858 75.0592 232.671 75.97C232.52 76.5888 232.088 77.7331 231.375 79.4028ZM229.916 78.784C230.558 77.2894 230.943 76.2502 231.083 75.6548C231.235 74.9659 231.189 74.3236 230.967 73.7165C230.605 72.7941 229.962 72.1285 229.04 71.7315C228.106 71.3345 227.184 71.3228 226.273 71.6965C225.677 71.9417 225.187 72.362 224.79 72.9342C224.451 73.4363 223.961 74.4404 223.319 75.9233C222.677 77.4179 222.291 78.4571 222.151 79.0525C221.999 79.7414 222.046 80.3836 222.268 80.9908C222.63 81.9132 223.272 82.5788 224.206 82.9758C225.14 83.3728 226.063 83.3844 226.973 83.0108C227.557 82.7656 228.059 82.3569 228.456 81.7731C228.783 81.271 229.274 80.2786 229.916 78.784Z" fill="#2DB7DB"/>
<path d="M136.097 339.212L127.106 351.963L125.868 351.589L125.541 335.989L127.129 336.48L127.304 349.079L134.497 338.733L136.097 339.212Z" fill="#2DB7DB"/>
<path d="M150.272 356.925L148.614 356.633L148.018 353.13L141.643 352.009L139.891 355.104L138.233 354.812L146.173 341.15L147.481 341.384L150.272 356.925ZM147.808 351.694L146.454 343.509L142.355 350.737L147.808 351.694Z" fill="#2DB7DB"/>
<path d="M169.759 357.404L167.903 357.322L164.809 350.608L161.247 350.456L160.979 357.03L159.402 356.96L160.01 342.143L165.684 342.376C166.992 342.435 168.031 342.843 168.814 343.626C169.596 344.396 169.958 345.424 169.911 346.685C169.864 347.736 169.537 348.6 168.93 349.277C168.323 349.943 167.518 350.363 166.525 350.538L169.759 357.404ZM168.323 346.65C168.358 345.774 168.113 345.097 167.599 344.595C167.074 344.104 166.373 343.836 165.486 343.801L161.528 343.637L161.306 349.067L165.264 349.23C166.163 349.265 166.887 349.067 167.447 348.623C167.996 348.18 168.288 347.526 168.323 346.65Z" fill="#2DB7DB"/>
<path d="M189.212 351.32C189.364 352.955 189.072 354.263 188.313 355.255C187.367 356.493 186.118 357.182 184.542 357.334C183.047 357.474 181.739 357.089 180.618 356.166C179.918 355.594 179.439 354.858 179.171 353.959C178.995 353.352 178.832 352.138 178.657 350.328C178.482 348.518 178.423 347.292 178.47 346.662C178.563 345.727 178.902 344.922 179.474 344.221C180.408 343.1 181.611 342.47 183.117 342.33C184.507 342.201 185.709 342.505 186.737 343.24C187.718 343.941 188.371 344.945 188.722 346.253L187.134 346.405C186.83 345.482 186.34 344.793 185.651 344.315C184.962 343.848 184.156 343.649 183.246 343.743C182.23 343.836 181.412 344.28 180.782 345.05C180.385 345.552 180.14 346.148 180.07 346.86C180.011 347.467 180.07 348.576 180.221 350.188C180.373 351.811 180.537 352.908 180.712 353.504C180.91 354.181 181.261 354.73 181.751 355.139C182.498 355.769 183.374 356.026 184.401 355.933C185.581 355.816 186.468 355.314 187.075 354.403C187.566 353.691 187.753 352.768 187.648 351.647L187.542 350.526L183.911 350.877L183.783 349.487L188.979 348.985L189.212 351.32Z" fill="#2DB7DB"/>
<path d="M209.996 353.072L208.35 353.457L206.435 350.456L200.13 351.904L199.721 355.442L198.074 355.827L200.059 340.158L201.356 339.854L209.996 353.072ZM205.687 349.207L201.25 342.19L200.293 350.445L205.687 349.207Z" fill="#2DB7DB"/>
<path d="M225.362 343.544C225.806 344.758 225.724 345.879 225.117 346.907C224.51 347.934 223.47 348.717 222.011 349.254C220.061 349.978 218.239 349.943 216.57 349.172L217.212 347.783C218.601 348.425 220.049 348.471 221.567 347.911C222.583 347.537 223.295 347.012 223.716 346.346C224.136 345.681 224.194 344.933 223.902 344.128C223.622 343.357 223.178 342.867 222.595 342.633C222.128 342.446 221.439 342.446 220.528 342.633L218.812 342.972C216.266 343.486 214.608 342.703 213.849 340.648C213.417 339.469 213.464 338.36 214.001 337.356C214.538 336.34 215.495 335.581 216.862 335.079C218.485 334.483 220.061 334.483 221.567 335.079L220.96 336.386C219.792 335.908 218.566 335.919 217.282 336.386C216.371 336.725 215.741 337.215 215.39 337.881C215.04 338.547 215.017 339.259 215.297 340.041C215.554 340.742 215.963 341.197 216.535 341.419C217.107 341.641 217.807 341.652 218.671 341.489L220.283 341.162C221.474 340.917 222.443 340.929 223.178 341.209C224.206 341.606 224.93 342.376 225.362 343.544Z" fill="#2DB7DB"/>
<path d="M87.6751 92.2C51.4202 118.04 27.7874 160.436 27.7874 208.344C27.7874 258.587 53.7788 302.747 93.0462 328.131" stroke="#2DB7DB" stroke-width="2.1331" stroke-miterlimit="10"/>
<path d="M247.594 328.131C286.861 302.747 312.864 258.587 312.864 208.344C312.864 160.436 289.22 118.04 252.977 92.2" stroke="#2DB7DB" stroke-width="2.1331" stroke-miterlimit="10"/>
<path d="M24.6581 345.634C23.9342 346.288 23.1402 346.58 22.2761 346.51C21.4121 346.44 20.6531 346.031 19.9759 345.284L18.0143 343.124L14.6632 346.16L13.8809 345.284L22.0309 337.916L24.7749 340.952C25.4521 341.699 25.779 342.505 25.7674 343.357C25.7557 344.21 25.382 344.969 24.6581 345.634ZM23.8641 344.758C24.3896 344.28 24.6464 343.766 24.6464 343.205C24.6347 342.645 24.4012 342.096 23.9225 341.571L22.0426 339.481L18.8083 342.411L20.6882 344.49C21.1669 345.015 21.6806 345.307 22.2411 345.377C22.8016 345.447 23.3387 345.237 23.8641 344.758Z" fill="#4C4C4C"/>
<path d="M41.9857 371.929L41.075 371.193L44.2392 367.305L40.1876 364.013L37.0233 367.901L36.1125 367.154L43.0483 358.63L43.959 359.365L40.8531 363.184L44.8931 366.476L47.999 362.658L48.9098 363.394L41.9857 371.929Z" fill="#4C4C4C"/>
<path d="M71.6084 385.065C70.9312 386.233 70.4408 386.992 70.1373 387.353C69.6819 387.867 69.1214 388.218 68.4792 388.393C67.44 388.661 66.4358 388.521 65.4784 387.961C64.5209 387.4 63.9021 386.595 63.6336 385.555C63.4584 384.913 63.4934 384.259 63.7153 383.605C63.8788 383.162 64.2991 382.356 64.9763 381.2C65.6535 380.032 66.144 379.274 66.4475 378.912C66.9029 378.398 67.4634 378.047 68.1056 377.872C69.1447 377.604 70.1489 377.744 71.1064 378.304C72.0638 378.865 72.6827 379.671 72.9512 380.71C73.1264 381.352 73.0914 382.006 72.8695 382.66C72.706 383.103 72.2857 383.897 71.6084 385.065ZM70.5926 384.469C71.1998 383.43 71.5851 382.695 71.7369 382.274C71.9121 381.784 71.9354 381.305 71.8186 380.838C71.6435 380.126 71.2231 379.577 70.5809 379.203C69.9271 378.818 69.2498 378.736 68.5493 378.923C68.0939 379.052 67.6969 379.309 67.3466 379.706C67.0547 380.044 66.5993 380.733 65.9922 381.772C65.385 382.811 64.9997 383.547 64.8479 383.967C64.6728 384.458 64.6494 384.937 64.7662 385.404C64.9413 386.116 65.3616 386.665 66.0038 387.038C66.6577 387.412 67.3349 387.505 68.0355 387.318C68.4909 387.19 68.8879 386.933 69.2382 386.536C69.5301 386.209 69.9854 385.509 70.5926 384.469Z" fill="#4C4C4C"/>
<path d="M99.1413 393.063L96.1988 391.872L92.4741 401.085L91.3882 400.641L95.1129 391.429L92.1705 390.238L92.5675 389.268L99.5499 392.094L99.1413 393.063Z" fill="#4C4C4C"/>
<path d="M124.152 405.417C123.825 406.724 123.556 407.589 123.37 408.021C123.078 408.651 122.634 409.13 122.062 409.48C121.139 410.029 120.135 410.169 119.061 409.9C117.987 409.632 117.17 409.025 116.621 408.102C116.282 407.53 116.13 406.9 116.165 406.199C116.2 405.732 116.376 404.845 116.714 403.537C117.053 402.229 117.31 401.365 117.496 400.933C117.788 400.303 118.232 399.824 118.804 399.485C119.727 398.936 120.731 398.796 121.805 399.065C122.879 399.333 123.697 399.929 124.245 400.863C124.584 401.435 124.736 402.066 124.701 402.766C124.666 403.233 124.479 404.121 124.152 405.417ZM123.019 405.137C123.311 403.969 123.475 403.163 123.51 402.708C123.533 402.182 123.428 401.715 123.194 401.307C122.821 400.676 122.272 400.268 121.548 400.081C120.824 399.894 120.135 399.999 119.516 400.384C119.119 400.629 118.804 400.991 118.571 401.47C118.384 401.879 118.139 402.673 117.847 403.84C117.555 405.008 117.391 405.814 117.368 406.269C117.345 406.795 117.45 407.262 117.683 407.67C118.057 408.301 118.606 408.709 119.33 408.896C120.054 409.083 120.731 408.978 121.361 408.593C121.758 408.347 122.074 407.986 122.307 407.507C122.482 407.086 122.716 406.304 123.019 405.137Z" fill="#4C4C4C"/>
<path d="M167.926 416.673L166.467 416.486L165.638 415.166C164.61 415.914 163.489 416.206 162.263 416.042C161.212 415.914 160.407 415.517 159.858 414.863C159.309 414.209 159.099 413.403 159.216 412.446C159.309 411.71 159.636 411.091 160.196 410.589C160.547 410.274 161.142 409.9 161.983 409.48C161.668 408.978 161.446 408.581 161.317 408.324C161.119 407.845 161.049 407.39 161.107 406.958C161.189 406.304 161.481 405.79 161.995 405.417C162.508 405.043 163.104 404.891 163.804 404.985C164.493 405.066 165.03 405.358 165.416 405.86C165.813 406.351 165.965 406.935 165.883 407.589C165.789 408.336 165.299 408.931 164.423 409.375C164.225 409.468 163.933 409.62 163.548 409.819L165.906 413.52C166.385 412.971 166.688 412.166 166.84 411.103L167.95 411.243C167.751 412.679 167.272 413.754 166.513 414.454L167.926 416.673ZM165.089 414.291L162.543 410.297C161.855 410.659 161.387 410.94 161.131 411.161C160.687 411.547 160.43 412.002 160.36 412.563C160.278 413.205 160.43 413.754 160.804 414.209C161.177 414.664 161.703 414.933 162.38 415.026C163.302 415.143 164.213 414.898 165.089 414.291ZM164.785 407.425C164.832 407.051 164.75 406.724 164.54 406.444C164.33 406.164 164.038 406.001 163.676 405.954C163.314 405.907 162.999 405.989 162.73 406.199C162.462 406.409 162.31 406.701 162.263 407.075C162.216 407.472 162.462 408.114 163.01 409.001C163.127 408.943 163.337 408.838 163.641 408.674C164.342 408.312 164.727 407.892 164.785 407.425Z" fill="#4C4C4C"/>
<path d="M212.203 406.269C212.425 407.402 212.541 408.207 212.565 408.686C212.6 409.632 212.425 410.403 212.016 410.986C211.479 411.78 210.638 412.294 209.482 412.516L205.781 413.228L203.691 402.439L207.392 401.727C208.548 401.505 209.517 401.657 210.311 402.194C210.907 402.591 211.35 403.198 211.654 404.016C211.806 404.436 211.993 405.183 212.203 406.269ZM211.047 406.491C210.872 405.557 210.72 404.915 210.591 404.564C210.37 403.91 210.066 403.455 209.657 403.175C209.05 402.743 208.291 402.626 207.38 402.801L205.034 403.257L206.727 411.99L209.074 411.535C209.984 411.36 210.638 410.963 211.047 410.332C211.304 409.935 211.409 409.352 211.362 408.569C211.339 408.149 211.234 407.46 211.047 406.491Z" fill="#4C4C4C"/>
<path d="M242.211 403.432L235.777 405.685L232.146 395.317L238.58 393.063L238.93 394.056L233.594 395.924L234.878 399.579L239.42 397.991L239.771 398.983L235.229 400.571L236.536 404.319L241.872 402.451L242.211 403.432Z" fill="#4C4C4C"/>
<path d="M266.171 389.432C266.603 390.284 266.638 391.113 266.276 391.931C265.914 392.748 265.225 393.413 264.197 393.927C262.82 394.628 261.477 394.768 260.181 394.336L260.531 393.262C261.605 393.612 262.679 393.519 263.742 392.981C264.454 392.619 264.945 392.176 265.19 391.639C265.435 391.113 265.423 390.564 265.131 389.992C264.851 389.455 264.489 389.117 264.046 389C263.684 388.906 263.181 388.965 262.528 389.187L261.29 389.584C259.457 390.179 258.172 389.747 257.437 388.299C257.016 387.459 256.958 386.653 257.262 385.859C257.565 385.065 258.207 384.423 259.165 383.932C260.309 383.349 261.465 383.22 262.633 383.524L262.306 384.54C261.407 384.294 260.508 384.399 259.597 384.855C258.955 385.182 258.534 385.602 258.336 386.116C258.137 386.63 258.172 387.167 258.453 387.715C258.709 388.206 259.048 388.509 259.48 388.626C259.912 388.731 260.438 388.685 261.056 388.498L262.212 388.112C263.076 387.832 263.789 387.75 264.349 387.891C265.143 388.101 265.75 388.603 266.171 389.432Z" fill="#4C4C4C"/>
<path d="M282.553 383.325L281.56 383.956L275.652 374.685L276.644 374.054L282.553 383.325Z" fill="#4C4C4C"/>
<path d="M300.697 365.11C301.456 366.056 301.807 366.99 301.737 367.912C301.655 369.057 301.153 370.003 300.242 370.726C299.378 371.427 298.409 371.707 297.335 371.59C296.669 371.52 296.074 371.252 295.548 370.808C295.198 370.493 294.603 369.816 293.75 368.765C292.909 367.714 292.372 366.978 292.151 366.57C291.835 365.951 291.707 365.32 291.789 364.643C291.905 363.569 292.407 362.681 293.271 361.993C294.077 361.35 294.953 361.047 295.887 361.094C296.774 361.129 297.592 361.491 298.339 362.156L297.416 362.892C296.856 362.448 296.272 362.214 295.653 362.203C295.035 362.191 294.462 362.401 293.925 362.822C293.33 363.289 293.003 363.896 292.933 364.631C292.886 365.098 292.98 365.577 293.225 366.044C293.435 366.441 293.914 367.107 294.673 368.053C295.42 368.987 295.969 369.617 296.319 369.921C296.716 370.259 297.16 370.458 297.627 370.516C298.339 370.598 298.993 370.411 299.588 369.932C300.277 369.384 300.616 368.706 300.627 367.901C300.639 367.259 300.382 366.616 299.869 365.963L299.343 365.309L297.23 367.002L296.587 366.196L299.612 363.779L300.697 365.11Z" fill="#4C4C4C"/>
<path d="M327.004 345.027L326.257 345.844L315.807 344.245L322.334 350.164L321.54 351.029L313.401 343.637L314.149 342.82L324.576 344.396L318.072 338.5L318.866 337.636L327.004 345.027Z" fill="#4C4C4C"/>
<path d="M93.7235 23.2398C94.1205 24.1388 94.1439 24.9445 93.817 25.6568C93.49 26.3807 92.8595 26.9295 91.9487 27.3382L88.0255 29.0546L83.6235 18.9896L87.4066 17.3316C88.294 16.9463 89.1114 16.8762 89.8704 17.1097C90.6293 17.3549 91.1898 17.892 91.5518 18.7211C91.7736 19.2348 91.8437 19.7602 91.7386 20.274C91.6335 20.7877 91.4 21.2314 91.038 21.5701C92.3107 21.4883 93.1981 22.0488 93.7235 23.2398ZM90.4892 19.1881C90.2323 18.616 89.8703 18.254 89.3799 18.1256C88.8895 17.9971 88.3524 18.0555 87.757 18.3124L85.1298 19.4683L86.6594 22.9595L89.2865 21.8036C89.8704 21.5467 90.279 21.1964 90.5242 20.7294C90.7461 20.2857 90.7344 19.7719 90.4892 19.1881ZM92.6376 23.6718C92.3924 23.1113 92.0071 22.7377 91.505 22.5626C90.9913 22.3874 90.4308 22.4458 89.812 22.7143L87.0681 23.917L88.6794 27.6067L91.4233 26.404C92.0421 26.1355 92.4625 25.7502 92.6844 25.2598C92.8945 24.7694 92.8828 24.2439 92.6376 23.6718Z" fill="#4C4C4C"/>
<path d="M120.976 17.3082L119.657 17.6818L115.932 13.6652L113.386 14.3774L114.706 19.0713L113.573 19.3866L110.596 8.80782L114.648 7.66355C115.582 7.40667 116.411 7.45337 117.135 7.81534C117.858 8.1773 118.349 8.81951 118.606 9.71858C118.816 10.4659 118.781 11.1548 118.512 11.7619C118.232 12.3691 117.765 12.8595 117.1 13.1981L120.976 17.3082ZM117.497 10.0689C117.321 9.45002 116.994 9.018 116.516 8.79615C116.037 8.56263 115.477 8.53927 114.846 8.72609L112.02 9.52008L113.106 13.3966L115.932 12.6026C116.574 12.4158 117.041 12.1122 117.333 11.6685C117.613 11.2248 117.672 10.6877 117.497 10.0689Z" fill="#4C4C4C"/>
<path d="M146.874 12.4392L145.636 12.6143L144.41 10.279L139.658 10.9563L139.144 13.5367L137.907 13.7119L140.359 2.25742L141.34 2.11731L146.874 12.4392ZM143.932 9.32158L141.094 3.86875L139.868 9.9054L143.932 9.32158Z" fill="#4C4C4C"/>
<path d="M174.057 11.0848H172.947L167.097 2.28082L167.109 11.0964H165.942L165.918 0.10903H167.027L172.877 8.87793L172.866 0.0973511H174.033L174.057 11.0848Z" fill="#4C4C4C"/>
<path d="M203.656 8.18899C203.492 9.33327 203.34 10.1273 203.2 10.5826C202.92 11.4934 202.5 12.1589 201.928 12.5793C201.157 13.1514 200.188 13.3499 199.032 13.1864L195.307 12.6377L196.895 1.76703L200.62 2.31582C201.776 2.49096 202.652 2.95801 203.224 3.72865C203.644 4.30079 203.866 5.02471 203.889 5.88876C203.889 6.33246 203.819 7.1031 203.656 8.18899ZM202.5 8.01385C202.64 7.07974 202.71 6.42587 202.71 6.05223C202.722 5.36333 202.582 4.82622 202.29 4.42922C201.858 3.82206 201.18 3.46009 200.27 3.31998L197.899 2.96969L196.615 11.7619L198.985 12.1122C199.896 12.2407 200.655 12.0889 201.239 11.6335C201.612 11.3416 201.904 10.8278 202.126 10.0806C202.22 9.68356 202.348 8.99466 202.5 8.01385Z" fill="#4C4C4C"/>
<path d="M218.742 17.1214L217.609 16.8412L220.271 6.18073L221.404 6.46096L218.742 17.1214Z" fill="#4C4C4C"/>
<path d="M241.907 24.4891L240.868 24.1038L238.416 13.817L235.392 22.0955L234.294 21.6868L238.066 11.365L239.105 11.7503L241.569 22.0021L244.581 13.7586L245.679 14.1673L241.907 24.4891Z" fill="#4C4C4C"/>
<path d="M269.3 33.0595C268.728 34.122 267.992 34.8109 267.117 35.1145C266.031 35.4882 264.968 35.3947 263.941 34.8343C262.96 34.3088 262.318 33.5265 262.014 32.499C261.827 31.8568 261.827 31.2029 262.037 30.5491C262.189 30.1054 262.574 29.288 263.217 28.0971C263.859 26.9061 264.326 26.1354 264.618 25.7618C265.062 25.2247 265.599 24.8627 266.241 24.6759C267.28 24.3723 268.284 24.4774 269.265 25.0145C270.176 25.5049 270.795 26.1938 271.122 27.0695C271.437 27.9102 271.425 28.7976 271.098 29.7434L270.059 29.1829C270.257 28.494 270.234 27.8635 270.012 27.2914C269.779 26.7192 269.37 26.2639 268.763 25.9486C268.097 25.5866 267.408 25.5166 266.708 25.7384C266.253 25.8785 265.856 26.1471 265.529 26.5558C265.248 26.9061 264.816 27.6066 264.244 28.6692C263.672 29.7317 263.31 30.479 263.17 30.911C263.018 31.4131 263.006 31.8918 263.135 32.3472C263.333 33.0361 263.765 33.5616 264.443 33.9235C265.213 34.3439 265.972 34.3906 266.72 34.087C267.315 33.8535 267.817 33.3631 268.214 32.6275L268.611 31.8918L266.229 30.6075L266.72 29.6967L270.129 31.5416L269.3 33.0595Z" fill="#4C4C4C"/>
<path d="M179.848 157.19L217.959 195.302L205.221 240.372C203.504 246.444 198.857 251.278 192.914 253.263L109.592 281.041L105.213 276.662L149.91 231.965C151.778 232.853 153.833 233.39 156.04 233.39C163.933 233.39 170.332 226.991 170.332 219.098C170.332 211.205 163.933 204.806 156.04 204.806C148.147 204.806 141.748 211.205 141.748 219.098C141.748 221.305 142.285 223.36 143.173 225.228L98.4758 269.925L94.0972 265.546L121.875 182.224C123.86 176.269 128.706 171.634 134.766 169.917L179.848 157.19ZM242.351 170.91L225.514 187.747L187.402 149.636L204.24 132.799C209.821 127.217 218.882 127.217 224.463 132.799L242.363 150.698C247.932 156.28 247.932 165.329 242.351 170.91Z" fill="#2DB7DB"/>
</svg>
