<svg width="61" height="61" viewBox="0 0 61 61" fill="none" xmlns="http://www.w3.org/2000/svg">
<path d="M61 27.5514C61 36.8731 55.9078 45.6833 42.5168 45.6833C38.8166 45.6833 34.9918 45.6833 33.8222 41.4894C31.6563 44.2824 27.9161 46.2036 24.5983 46.2036C17.3136 46.2036 12.7906 41.2137 12.7906 33.1818C12.7906 22.2057 20.569 14.5518 29.7439 14.5518C32.1455 14.5518 35.312 15.0276 37.1177 17.2291V17.2157C37.2111 16.3885 37.9138 15.7392 38.7677 15.7392H44.3002C46.1547 15.7392 47.5512 17.4292 47.1998 19.2526L44.318 34.1468C43.8955 36.2593 43.8421 37.7848 45.9768 37.8381C50.5354 37.3534 53.1326 32.3145 53.1326 27.5425C53.1326 14.952 42.8192 7.86293 30.5045 7.86293C18.0252 7.86293 7.87628 18.0163 7.87628 30.4956C7.87628 42.9748 18.0296 53.1282 30.5045 53.1282C34.8495 53.1282 39.1056 51.8696 42.7302 49.5436C43.9844 48.7386 45.6433 49.0233 46.5905 50.1751L47.8403 51.705C48.9565 53.0704 48.6363 55.0939 47.1554 56.0545C42.2277 59.2611 36.4239 61 30.5 61C13.6401 61 0 47.3555 0 30.5C0 13.6401 13.6445 0 30.5 0C47.4711 0 61 10.7804 61 27.5514ZM34.9829 28.4987C34.9829 25.3588 33.3463 23.4865 30.6023 23.4865C27.1778 23.4865 23.3931 26.8976 23.3931 32.4302C23.3931 35.5211 25.092 37.4423 27.8316 37.4423C30.8158 37.4423 34.9829 34.0401 34.9829 28.4987Z" fill="#2DB7DB"/>
</svg>
