<svg width="70" height="62" viewBox="0 0 70 62" fill="none" xmlns="http://www.w3.org/2000/svg">
<path d="M16.8617 20.4069C17.4901 22.2107 18.369 24.0934 19.4457 26.0285V54.2505L2.66746 61.8599C1.38867 62.3678 0 61.4308 0 60.0604V29.75C0 28.1169 1.01073 26.7247 2.44334 26.1511L16.8617 20.4069ZM50.3126 15.2581C50.3126 22.0706 40.3064 34.4873 36.47 38.9924C35.6965 39.9031 34.3079 39.9031 33.53 38.9924C29.6936 34.4873 19.6874 22.0706 19.6874 15.2581C19.6874 6.83003 26.5428 0 35.0022 0C43.4616 0 50.3126 6.8344 50.3126 15.2581ZM39.4363 41.5012C41.8269 38.6903 44.3669 35.4899 46.6652 32.2106V61.9956L23.3304 54.2462V32.2106C25.6287 35.4899 28.1688 38.6903 30.5594 41.5012C31.6668 42.8059 33.2883 43.5545 34.9978 43.5545C36.7073 43.5545 38.3288 42.8059 39.4363 41.5012ZM40.1042 15.2581C40.1042 12.4473 37.8191 10.175 34.9978 10.175C32.1765 10.175 29.8914 12.4517 29.8914 15.2581C29.8914 18.0645 32.1765 20.3456 34.9978 20.3456C37.8191 20.3456 40.1042 18.0689 40.1042 15.2581ZM70 21.3176V51.628C70 53.2611 68.9893 54.6533 67.5567 55.2269L50.5587 62V27.1275L67.3369 19.5181C68.6113 19.0102 70 19.9472 70 21.3176Z" fill="#2DB7DB"/>
</svg>
